<svg id="Layer_1" data-name="Layer 1" xmlns="http://www.w3.org/2000/svg" viewBox="0 0 129 114"><defs><style>.cls-1{fill:#b83b5e;}</style></defs><path class="cls-1" d="M94.35,46.84a8.33,8.33,0,0,0-2-1.87,7.47,7.47,0,0,0-4.18-1.28h-42A7.51,7.51,0,0,0,42,45a8.24,8.24,0,0,0-3.61,6.9V73.94a8.41,8.41,0,0,0,1.17,4.3,8.16,8.16,0,0,0,1.73,2.05,7.54,7.54,0,0,0,4.9,1.82h42a7.54,7.54,0,0,0,4.9-1.82,7.92,7.92,0,0,0,1.72-2.05A8.32,8.32,0,0,0,96,73.94V51.87A8.42,8.42,0,0,0,94.35,46.84Zm-48.17-.42h42a4.77,4.77,0,0,1,1.85.36L72.15,60.66,70,62.36,68.5,63.49a2.34,2.34,0,0,1-2.63,0l-1.46-1.13-2.19-1.7L44.32,46.78A4.85,4.85,0,0,1,46.18,46.42ZM41,73.94V51.87a5.64,5.64,0,0,1,1.14-3.41L60,62.36,41.65,76.62A5.63,5.63,0,0,1,41,73.94ZM88.2,79.38h-42a5,5,0,0,1-2.7-.79L62.22,64.05l2.1,1.63a4.74,4.74,0,0,0,2.87.93,4.69,4.69,0,0,0,2.86-.93l2.1-1.63L90.9,78.59A5,5,0,0,1,88.2,79.38Zm5.2-5.44a5.75,5.75,0,0,1-.67,2.68L74.34,62.36l17.92-13.9a5.64,5.64,0,0,1,1.14,3.41Z"/></svg>