<svg id="Layer_1" data-name="Layer 1" xmlns="http://www.w3.org/2000/svg" viewBox="0 0 129 114"><defs><style>.cls-1{fill:none;stroke:#b83b5e;stroke-miterlimit:10;stroke-width:1.91px;}</style></defs><polygon class="cls-1" points="81.72 47.08 89.98 68.47 97.28 65.06 89.26 43.92 81.72 47.08"/><polygon class="cls-1" points="42.71 44.31 34.38 65.33 42.08 68.08 50.39 46.71 42.71 44.31"/><path class="cls-1" d="M67.63,56.19a9.91,9.91,0,0,0-3.28,0c-1.1.12-4.13,8.87-7.42,7.54s.61-10.33,2-12.64A3.81,3.81,0,0,1,60,50a15.1,15.1,0,0,0-9,.2s-6.32,15.06-6.44,15.31.37.42.37.42l2.15,2c.79-.71,3.68-2.83,5.74,1.68,0,0,4.62-1.22,4.74,3.28,0,0,4.62-1.7,4.13,3,0,0,4.13,1.33,3.53,4.61a2.82,2.82,0,0,1-.3.86l1.15,1.15a12.55,12.55,0,0,0,2.18,0l-3-3.2-.32-1.72s4.68,4.31,5.17,4.55a3.1,3.1,0,0,0,4-.85l-9.36-9.23c-.44-.44-.56-.81-.21-1.16s.7-.12,1.15.34S73.17,78.5,74,79.34s2.46,1.85,3.95.94a1.89,1.89,0,0,0,.94-2.09c-.22-.46-8.77-8.77-9.33-9.33s-.93-1-.58-1.37.7,0,1.25.52,8.14,7.81,8.9,8.57a2.51,2.51,0,0,0,3.43-.19c1.13-1.06,1.22-3.28-.85-5.5C81.72,70.89,68.23,56.44,67.63,56.19Z"/><path class="cls-1" d="M80.75,49.63l-12.52-3S62.62,48.13,60,50a3.81,3.81,0,0,0-1.12,1.11c-1.34,2.31-5.23,11.3-2,12.64s6.32-7.42,7.42-7.54a9.91,9.91,0,0,1,3.28,0c.6.25,14.09,14.7,14.09,14.7l5.83-4.37Z"/><path class="cls-1" d="M61.67,75.88c.49-4.74-4.13-3-4.13-3-.12-4.5-4.74-3.28-4.74-3.28-2.06-4.51-4.95-2.39-5.74-1.68a2.25,2.25,0,0,0-.21.2c-2.23,5.53,2.31,6,2.31,6-.37,4.5,3.76,4,3.76,4,.49,5.23,5,2.43,5,2.43,1.42,3.08,5.73,3.27,7,.86a2.82,2.82,0,0,0,.3-.86C65.8,77.21,61.67,75.88,61.67,75.88Z"/></svg>