<svg id="Layer_1" data-name="Layer 1" xmlns="http://www.w3.org/2000/svg" viewBox="0 0 129 114"><defs><style>.cls-1{fill:#b83b5e;}</style></defs><path class="cls-1" d="M73.42,45.26a8.23,8.23,0,1,1-5.83,2.41,8.21,8.21,0,0,1,5.83-2.41Zm4.69,3.53a6.64,6.64,0,1,0,2,4.7A6.61,6.61,0,0,0,78.11,48.79Z"/><path class="cls-1" d="M73.42,49.5a4,4,0,1,1-2.82,1.17,4,4,0,0,1,2.82-1.17Zm1.69,2.3a2.38,2.38,0,0,0-3.39,0,2.4,2.4,0,0,0,1.7,4.09,2.36,2.36,0,0,0,1.69-.71,2.39,2.39,0,0,0,0-3.38Z"/><path class="cls-1" d="M69.8,60.89v8.32l3.14-2.93h0a.79.79,0,0,1,1.13,0h0l3,2.87V60.89a7.93,7.93,0,0,1-1,.42,8.23,8.23,0,0,1-5.13,0,7.93,7.93,0,0,1-1-.42ZM68.21,71V59.49h0a.76.76,0,0,1,.16-.47.79.79,0,0,1,1.11-.17h0a6.7,6.7,0,0,0,1.86,1,6.69,6.69,0,0,0,4.15,0,6.39,6.39,0,0,0,1.82-.93.78.78,0,0,1,.51-.19.8.8,0,0,1,.8.8v11.6h0a.78.78,0,0,1-.23.56.79.79,0,0,1-1.12,0h0L73.47,68l-3.88,3.62a.78.78,0,0,1-.58.25A.79.79,0,0,1,68.21,71Z"/><path class="cls-1" d="M56.3,64.37a.79.79,0,0,0,.79-.79.79.79,0,0,0-.79-.8H41.06a.8.8,0,0,0-.79.8.79.79,0,0,0,.79.79Z"/><path class="cls-1" d="M56.3,59.36a.79.79,0,0,0,.79-.79.79.79,0,0,0-.79-.8H41.06a.8.8,0,0,0-.79.8.79.79,0,0,0,.79.79Z"/><path class="cls-1" d="M56.3,54.35a.79.79,0,0,0,.79-.79.79.79,0,0,0-.79-.8H41.06a.8.8,0,0,0-.79.8.79.79,0,0,0,.79.79Z"/><path class="cls-1" d="M38.58,41.13H83.33a3.1,3.1,0,0,1,2.19.91,3.07,3.07,0,0,1,.9,2.18V72.91a3.07,3.07,0,0,1-.9,2.18,3.1,3.1,0,0,1-2.19.91H38.58a3.11,3.11,0,0,1-3.09-3.09V44.22a3.11,3.11,0,0,1,3.09-3.09Zm44.75,1.6H38.58a1.5,1.5,0,0,0-1.49,1.49V72.91A1.46,1.46,0,0,0,37.53,74a1.48,1.48,0,0,0,1,.44H83.33A1.49,1.49,0,0,0,84.39,74a1.51,1.51,0,0,0,.44-1.06V44.22a1.48,1.48,0,0,0-.44-1A1.45,1.45,0,0,0,83.33,42.73Z"/></svg>