<svg id="Layer_1" data-name="Layer 1" xmlns="http://www.w3.org/2000/svg" viewBox="0 0 129 114"><defs><style>.cls-1{fill:#b83b5e;}</style></defs><path class="cls-1" d="M97,82.2V36.75H44.28V82.2H60.47v5H56.71v2.44H84.58V87.19H80.82v-5Zm-50.28-43H94.56V67.68H62.24a3.67,3.67,0,0,0-6.94,0H46.72ZM60,68.9a1.23,1.23,0,0,1-1,1.21,1,1,0,0,1-.25,0,1.07,1.07,0,0,1-.25,0,1.24,1.24,0,0,1,0-2.43,1.07,1.07,0,0,1,.25,0,1,1,0,0,1,.25,0A1.24,1.24,0,0,1,60,68.9ZM46.72,70.11H55.3a3.67,3.67,0,0,0,6.94,0H94.56v4H46.72ZM78.39,87.19H62.91v-5H78.39ZM46.72,79.77V76.54H94.56v3.23Z"/><path class="cls-1" d="M65.77,47.73v13l10.91-6.52ZM68.2,52l3.73,2.22L68.2,56.47Z"/></svg>